<mxfile host="app.diagrams.net" modified="2023-02-15T20:44:08.345Z" agent="5.0 (Windows NT 10.0; Win64; x64) AppleWebKit/537.36 (KHTML, like Gecko) Chrome/109.0.0.0 Safari/537.36" version="20.7.4" etag="AyhleFCdMIRBcnuoxmpT" type="github">
  <diagram id="pFhrnznNoVYy2KpuG-1z" name="Page-1">
    <mxGraphModel dx="1050" dy="1583" grid="1" gridSize="10" guides="1" tooltips="1" connect="1" arrows="1" fold="1" page="1" pageScale="1" pageWidth="850" pageHeight="1100" math="0" shadow="0">
      <root>
        <mxCell id="0" />
        <mxCell id="1" parent="0" />
        <mxCell id="2Bv_K4hrnXmEvZRlv9hX-5" value="" style="edgeStyle=orthogonalEdgeStyle;rounded=0;orthogonalLoop=1;jettySize=auto;html=1;" edge="1" parent="1" source="2Bv_K4hrnXmEvZRlv9hX-1" target="2Bv_K4hrnXmEvZRlv9hX-3">
          <mxGeometry relative="1" as="geometry">
            <Array as="points">
              <mxPoint x="420" y="120" />
              <mxPoint x="420" y="120" />
            </Array>
          </mxGeometry>
        </mxCell>
        <mxCell id="2Bv_K4hrnXmEvZRlv9hX-1" value="Cube Function" style="rounded=0;whiteSpace=wrap;html=1;" vertex="1" parent="1">
          <mxGeometry x="345" y="40" width="160" height="40" as="geometry" />
        </mxCell>
        <mxCell id="2Bv_K4hrnXmEvZRlv9hX-2" value="Lenght test case" style="rounded=0;whiteSpace=wrap;html=1;" vertex="1" parent="1">
          <mxGeometry x="140" y="160" width="150" height="40" as="geometry" />
        </mxCell>
        <mxCell id="2Bv_K4hrnXmEvZRlv9hX-12" value="" style="edgeStyle=orthogonalEdgeStyle;rounded=0;orthogonalLoop=1;jettySize=auto;html=1;" edge="1" parent="1" source="2Bv_K4hrnXmEvZRlv9hX-3" target="2Bv_K4hrnXmEvZRlv9hX-11">
          <mxGeometry x="-0.2941" y="-5" relative="1" as="geometry">
            <Array as="points">
              <mxPoint x="425" y="260" />
              <mxPoint x="425" y="260" />
            </Array>
            <mxPoint as="offset" />
          </mxGeometry>
        </mxCell>
        <mxCell id="2Bv_K4hrnXmEvZRlv9hX-3" value="Surface area test case" style="rounded=0;whiteSpace=wrap;html=1;" vertex="1" parent="1">
          <mxGeometry x="350" y="160" width="150" height="40" as="geometry" />
        </mxCell>
        <mxCell id="2Bv_K4hrnXmEvZRlv9hX-4" value="Volume test case" style="whiteSpace=wrap;html=1;" vertex="1" parent="1">
          <mxGeometry x="590" y="160" width="170" height="40" as="geometry" />
        </mxCell>
        <mxCell id="2Bv_K4hrnXmEvZRlv9hX-6" value="" style="endArrow=classic;html=1;rounded=0;entryX=0.555;entryY=0.005;entryDx=0;entryDy=0;entryPerimeter=0;" edge="1" parent="1" target="2Bv_K4hrnXmEvZRlv9hX-4">
          <mxGeometry width="50" height="50" relative="1" as="geometry">
            <mxPoint x="420" y="120" as="sourcePoint" />
            <mxPoint x="450" y="260" as="targetPoint" />
            <Array as="points">
              <mxPoint x="684" y="120" />
            </Array>
          </mxGeometry>
        </mxCell>
        <mxCell id="2Bv_K4hrnXmEvZRlv9hX-7" value="" style="endArrow=classic;html=1;rounded=0;entryX=0.5;entryY=0;entryDx=0;entryDy=0;" edge="1" parent="1" target="2Bv_K4hrnXmEvZRlv9hX-2">
          <mxGeometry width="50" height="50" relative="1" as="geometry">
            <mxPoint x="420" y="120" as="sourcePoint" />
            <mxPoint x="450" y="260" as="targetPoint" />
            <Array as="points">
              <mxPoint x="215" y="120" />
            </Array>
          </mxGeometry>
        </mxCell>
        <mxCell id="2Bv_K4hrnXmEvZRlv9hX-17" value="" style="edgeStyle=orthogonalEdgeStyle;rounded=0;orthogonalLoop=1;jettySize=auto;html=1;" edge="1" parent="1" source="2Bv_K4hrnXmEvZRlv9hX-11" target="2Bv_K4hrnXmEvZRlv9hX-16">
          <mxGeometry relative="1" as="geometry" />
        </mxCell>
        <mxCell id="2Bv_K4hrnXmEvZRlv9hX-11" value="Run all Tests" style="rounded=1;whiteSpace=wrap;html=1;" vertex="1" parent="1">
          <mxGeometry x="345" y="280" width="150" height="40" as="geometry" />
        </mxCell>
        <mxCell id="2Bv_K4hrnXmEvZRlv9hX-14" value="" style="endArrow=classic;html=1;rounded=0;exitX=0.5;exitY=1;exitDx=0;exitDy=0;entryX=0;entryY=0.5;entryDx=0;entryDy=0;" edge="1" parent="1" source="2Bv_K4hrnXmEvZRlv9hX-2" target="2Bv_K4hrnXmEvZRlv9hX-11">
          <mxGeometry width="50" height="50" relative="1" as="geometry">
            <mxPoint x="400" y="280" as="sourcePoint" />
            <mxPoint x="340" y="310" as="targetPoint" />
            <Array as="points">
              <mxPoint x="215" y="300" />
              <mxPoint x="280" y="300" />
            </Array>
          </mxGeometry>
        </mxCell>
        <mxCell id="2Bv_K4hrnXmEvZRlv9hX-15" value="" style="endArrow=classic;html=1;rounded=0;exitX=0.5;exitY=1;exitDx=0;exitDy=0;entryX=1;entryY=0.5;entryDx=0;entryDy=0;" edge="1" parent="1" source="2Bv_K4hrnXmEvZRlv9hX-4" target="2Bv_K4hrnXmEvZRlv9hX-11">
          <mxGeometry width="50" height="50" relative="1" as="geometry">
            <mxPoint x="400" y="280" as="sourcePoint" />
            <mxPoint x="450" y="230" as="targetPoint" />
            <Array as="points">
              <mxPoint x="675" y="300" />
            </Array>
          </mxGeometry>
        </mxCell>
        <mxCell id="2Bv_K4hrnXmEvZRlv9hX-16" value="Make changes" style="rounded=1;whiteSpace=wrap;html=1;" vertex="1" parent="1">
          <mxGeometry x="360" y="380" width="120" height="40" as="geometry" />
        </mxCell>
        <mxCell id="2Bv_K4hrnXmEvZRlv9hX-18" value="" style="endArrow=classic;html=1;rounded=0;exitX=0.5;exitY=1;exitDx=0;exitDy=0;entryX=0;entryY=0.75;entryDx=0;entryDy=0;" edge="1" parent="1" source="2Bv_K4hrnXmEvZRlv9hX-16" target="2Bv_K4hrnXmEvZRlv9hX-11">
          <mxGeometry width="50" height="50" relative="1" as="geometry">
            <mxPoint x="400" y="280" as="sourcePoint" />
            <mxPoint x="340" y="310" as="targetPoint" />
            <Array as="points">
              <mxPoint x="420" y="470" />
              <mxPoint x="300" y="470" />
              <mxPoint x="300" y="310" />
            </Array>
          </mxGeometry>
        </mxCell>
        <mxCell id="2Bv_K4hrnXmEvZRlv9hX-19" value="Fail" style="text;html=1;strokeColor=none;fillColor=none;align=center;verticalAlign=middle;whiteSpace=wrap;rounded=0;" vertex="1" parent="1">
          <mxGeometry x="410" y="330" width="60" height="30" as="geometry" />
        </mxCell>
        <mxCell id="2Bv_K4hrnXmEvZRlv9hX-21" value="Pass" style="text;html=1;strokeColor=none;fillColor=none;align=center;verticalAlign=middle;whiteSpace=wrap;rounded=0;" vertex="1" parent="1">
          <mxGeometry x="230" y="370" width="60" height="30" as="geometry" />
        </mxCell>
        <mxCell id="2Bv_K4hrnXmEvZRlv9hX-22" value="Stop" style="rounded=1;whiteSpace=wrap;html=1;" vertex="1" parent="1">
          <mxGeometry x="615" y="410" width="120" height="40" as="geometry" />
        </mxCell>
        <mxCell id="2Bv_K4hrnXmEvZRlv9hX-23" value="" style="endArrow=classic;html=1;rounded=0;exitX=1;exitY=0.75;exitDx=0;exitDy=0;entryX=0.5;entryY=0;entryDx=0;entryDy=0;" edge="1" parent="1" source="2Bv_K4hrnXmEvZRlv9hX-11" target="2Bv_K4hrnXmEvZRlv9hX-22">
          <mxGeometry width="50" height="50" relative="1" as="geometry">
            <mxPoint x="400" y="270" as="sourcePoint" />
            <mxPoint x="450" y="220" as="targetPoint" />
            <Array as="points">
              <mxPoint x="675" y="310" />
            </Array>
          </mxGeometry>
        </mxCell>
        <mxCell id="2Bv_K4hrnXmEvZRlv9hX-24" value="Pass" style="text;html=1;strokeColor=none;fillColor=none;align=center;verticalAlign=middle;whiteSpace=wrap;rounded=0;" vertex="1" parent="1">
          <mxGeometry x="680" y="340" width="60" height="30" as="geometry" />
        </mxCell>
        <mxCell id="2Bv_K4hrnXmEvZRlv9hX-25" value="&lt;h1&gt;Testing Function&lt;/h1&gt;" style="text;html=1;strokeColor=none;fillColor=none;spacing=5;spacingTop=-20;whiteSpace=wrap;overflow=hidden;rounded=0;" vertex="1" parent="1">
          <mxGeometry x="315" y="-80" width="210" height="60" as="geometry" />
        </mxCell>
      </root>
    </mxGraphModel>
  </diagram>
</mxfile>
